<svg xmlns="http://www.w3.org/2000/svg" width="1078" height="562"><defs><filter id="f" x="637.562" y="78.79" width="247.876" height="106.21" filterUnits="userSpaceOnUse"><feOffset dx="7" dy="7"/><feGaussianBlur stdDeviation="9" result="g"/><feFlood flood-opacity=".161"/><feComposite operator="in" in2="g"/><feComposite in="SourceGraphic"/></filter><filter id="g" x="140" y="163.895" width="247.876" height="106.21" filterUnits="userSpaceOnUse"><feOffset dx="7" dy="7"/><feGaussianBlur stdDeviation="9" result="i"/><feFlood flood-opacity=".161"/><feComposite operator="in" in2="i"/><feComposite in="SourceGraphic"/></filter><filter id="h" x="637.562" y="146" width="247.876" height="106.21" filterUnits="userSpaceOnUse"><feOffset dx="7" dy="7"/><feGaussianBlur stdDeviation="9" result="k"/><feFlood flood-opacity=".161"/><feComposite operator="in" in2="k"/><feComposite in="SourceGraphic"/></filter><filter id="i" x="637.562" y="213.21" width="247.876" height="106.21" filterUnits="userSpaceOnUse"><feOffset dx="7" dy="7"/><feGaussianBlur stdDeviation="9" result="m"/><feFlood flood-opacity=".161"/><feComposite operator="in" in2="m"/><feComposite in="SourceGraphic"/></filter><filter id="j" x="509" y="150" width="117" height="134" filterUnits="userSpaceOnUse"><feOffset dx="7" dy="7"/><feGaussianBlur stdDeviation="9" result="o"/><feFlood flood-opacity=".161"/><feComposite operator="in" in2="o"/><feComposite in="SourceGraphic"/></filter><filter id="k" x="497" y="140" width="117" height="134" filterUnits="userSpaceOnUse"><feOffset dx="7" dy="7"/><feGaussianBlur stdDeviation="9" result="q"/><feFlood flood-opacity=".161"/><feComposite operator="in" in2="q"/><feComposite in="SourceGraphic"/></filter><filter id="l" x="399" y="79" width="117" height="134" filterUnits="userSpaceOnUse"><feOffset dx="7" dy="7"/><feGaussianBlur stdDeviation="9" result="s"/><feFlood flood-opacity=".161"/><feComposite operator="in" in2="s"/><feComposite in="SourceGraphic"/></filter><filter id="m" x="584" y="251" width="117" height="134" filterUnits="userSpaceOnUse"><feOffset dx="7" dy="7"/><feGaussianBlur stdDeviation="9" result="u"/><feFlood flood-opacity=".161"/><feComposite operator="in" in2="u"/><feComposite in="SourceGraphic"/></filter><radialGradient id="a" cx=".5" cy=".5" r=".5" gradientUnits="objectBoundingBox"><stop offset="0" stop-color="#f7ffde"/><stop offset="1" stop-color="#fff" stop-opacity="0"/></radialGradient><radialGradient id="b" cx=".5" cy=".5" r=".5" gradientUnits="objectBoundingBox"><stop offset="0" stop-color="#ffdee5"/><stop offset="1" stop-color="#fff" stop-opacity="0"/></radialGradient><clipPath id="d"><path fill="none" d="M0 0h449.932v273.076H0z"/></clipPath><clipPath id="e"><path fill="none" d="M0 0h135.763v111.751H0z"/></clipPath><linearGradient id="c" x1=".069" y1=".156" x2=".858" y2=".581" gradientUnits="objectBoundingBox"><stop offset="0" stop-color="#f7ffde"/><stop offset="1" stop-color="#ffdee5"/></linearGradient></defs><g transform="translate(-660 -211)"><circle cx="160" cy="160" r="160" transform="translate(660 453)" fill="url(#a)"/><circle cx="98" cy="98" r="98" transform="translate(1542 248)" fill="url(#b)"/><path d="M859.456 106.776C821.2-12.449 668.351-21.517 568.911 29.177A193.075 193.075 0 0 1 502.3 48.95l-93.753 10.311a193.71 193.71 0 0 1-107.628-19.474 150.081 150.081 0 0 0-22.229-9.044C119.842-16.239 26.3 60.409 4.268 205.447c-10.584 69.686.578 108.787 11.138 152.1a191.158 191.158 0 0 0 71.443 108.386c90.3 67.022 216.28 36.823 330.617-23.038a182.31 182.31 0 0 0 16.591-9.83c98.573-65.734 173.854-23.442 268.837-68.618 27.01-14.31 43.421-39.775 60.147-64.342a192.6 192.6 0 0 1 16.573-21.024c44.172-48.685 103.1-100.28 79.843-172.3" transform="translate(775.292 211.49)" fill="url(#c)"/><g transform="translate(7 1)" fill="#c4e8fe"><circle cx="6" cy="6" r="6" transform="translate(1621 562)"/><circle cx="3" cy="3" r="3" transform="translate(1624 544)"/><circle cx="3" cy="3" r="3" transform="translate(1624 586)"/><circle cx="3" cy="3" r="3" transform="translate(1645 565)"/><circle cx="3" cy="3" r="3" transform="translate(1603 565)"/><circle cx="3" cy="3" r="3" transform="translate(1610 579)"/><circle cx="2" cy="2" r="2" transform="translate(1602 590)"/><circle cx="2" cy="2" r="2" transform="translate(1649 590)"/><circle cx="2" cy="2" r="2" transform="translate(1602 542)"/><circle cx="2" cy="2" r="2" transform="translate(1649 542)"/><circle cx="2" cy="2" r="2" transform="translate(1625 602)"/><circle cx="2" cy="2" r="2" transform="translate(1625 530)"/><circle cx="2" cy="2" r="2" transform="translate(1589 566)"/><circle cx="2" cy="2" r="2" transform="translate(1661 566)"/><circle cx="3" cy="3" r="3" transform="translate(1637 579)"/><circle cx="3" cy="3" r="3" transform="translate(1610 551)"/><circle cx="3" cy="3" r="3" transform="translate(1637 551)"/></g><g transform="translate(-76 -319)" fill="#4863e9"><circle cx="6" cy="6" r="6" transform="translate(1621 562)"/><circle cx="3" cy="3" r="3" transform="translate(1624 544)"/><circle cx="3" cy="3" r="3" transform="translate(1624 586)"/><circle cx="3" cy="3" r="3" transform="translate(1645 565)"/><circle cx="3" cy="3" r="3" transform="translate(1603 565)"/><circle cx="3" cy="3" r="3" transform="translate(1610 579)"/><circle cx="2" cy="2" r="2" transform="translate(1602 590)"/><circle cx="2" cy="2" r="2" transform="translate(1649 590)"/><circle cx="2" cy="2" r="2" transform="translate(1602 542)"/><circle cx="2" cy="2" r="2" transform="translate(1649 542)"/><circle cx="2" cy="2" r="2" transform="translate(1625 602)"/><circle cx="2" cy="2" r="2" transform="translate(1625 530)"/><circle cx="2" cy="2" r="2" transform="translate(1589 566)"/><circle cx="2" cy="2" r="2" transform="translate(1661 566)"/><circle cx="3" cy="3" r="3" transform="translate(1637 579)"/><circle cx="3" cy="3" r="3" transform="translate(1610 551)"/><circle cx="3" cy="3" r="3" transform="translate(1637 551)"/></g><g transform="translate(-625 -243)" fill="#fff"><circle cx="6" cy="6" r="6" transform="translate(1621 562)"/><circle cx="3" cy="3" r="3" transform="translate(1624 544)"/><circle cx="3" cy="3" r="3" transform="translate(1624 586)"/><circle cx="3" cy="3" r="3" transform="translate(1645 565)"/><circle cx="3" cy="3" r="3" transform="translate(1603 565)"/><circle cx="3" cy="3" r="3" transform="translate(1610 579)"/><circle cx="2" cy="2" r="2" transform="translate(1602 590)"/><circle cx="2" cy="2" r="2" transform="translate(1649 590)"/><circle cx="2" cy="2" r="2" transform="translate(1602 542)"/><circle cx="2" cy="2" r="2" transform="translate(1649 542)"/><circle cx="2" cy="2" r="2" transform="translate(1625 602)"/><circle cx="2" cy="2" r="2" transform="translate(1625 530)"/><circle cx="2" cy="2" r="2" transform="translate(1589 566)"/><circle cx="2" cy="2" r="2" transform="translate(1661 566)"/><circle cx="3" cy="3" r="3" transform="translate(1637 579)"/><circle cx="3" cy="3" r="3" transform="translate(1610 551)"/><circle cx="3" cy="3" r="3" transform="translate(1637 551)"/></g><g transform="translate(-671 167)" fill="#ffa7c2"><circle cx="6" cy="6" r="6" transform="translate(1621 562)"/><circle cx="3" cy="3" r="3" transform="translate(1624 544)"/><circle cx="3" cy="3" r="3" transform="translate(1624 586)"/><circle cx="3" cy="3" r="3" transform="translate(1645 565)"/><circle cx="3" cy="3" r="3" transform="translate(1603 565)"/><circle cx="3" cy="3" r="3" transform="translate(1610 579)"/><circle cx="2" cy="2" r="2" transform="translate(1602 590)"/><circle cx="2" cy="2" r="2" transform="translate(1649 590)"/><circle cx="2" cy="2" r="2" transform="translate(1602 542)"/><circle cx="2" cy="2" r="2" transform="translate(1649 542)"/><circle cx="2" cy="2" r="2" transform="translate(1625 602)"/><circle cx="2" cy="2" r="2" transform="translate(1625 530)"/><circle cx="2" cy="2" r="2" transform="translate(1589 566)"/><circle cx="2" cy="2" r="2" transform="translate(1661 566)"/><circle cx="3" cy="3" r="3" transform="translate(1637 579)"/><circle cx="3" cy="3" r="3" transform="translate(1610 551)"/><circle cx="3" cy="3" r="3" transform="translate(1637 551)"/></g><g clip-path="url(#d)" transform="translate(911.981 437.941)"><path d="M127.64 174.484v-62.687a19.974 19.974 0 0 1 19.974-19.974h45.168a19.974 19.974 0 0 1 19.974 19.974v65.087Z" fill="#b0d4ff"/><path d="M220.848 174.489H127.64v3.9a6 6 0 0 0 4.613 5.83l-2.017 87.432a1.392 1.392 0 0 0 1.392 1.424h.133a1.5 1.5 0 0 0 1.5-1.418l5.018-87.271h82.569Z" fill="#95c0f4"/><path d="M231.299 174.489h-65.982a4.435 4.435 0 0 0-4.435 4.435v1.028a4.435 4.435 0 0 0 4.435 4.434h3.161l-2.013 87.265a1.392 1.392 0 0 0 1.392 1.424h.132a1.5 1.5 0 0 0 1.5-1.418l5.017-87.271h50.711l5.017 87.271a1.505 1.505 0 0 0 1.5 1.418h.133a1.392 1.392 0 0 0 1.392-1.424l-2.013-87.265h.044a4.435 4.435 0 0 0 4.435-4.434v-1.028a4.435 4.435 0 0 0-4.435-4.435" fill="#b0d4ff"/><path d="M228.738 158.868c-6.47 11.262-14.609 15.609-14.609 15.609H180.27s53.4-24.2 48.468-15.609" fill="#233862"/><path d="M202.729 246.004a3.129 3.129 0 0 0-.558 3.348.027.027 0 0 0 .009.017c.807 2.232 3.475 4.724 6.575 7.212.4.32.748.61 1.055.88.081.071.161.142.237.213.062.054.123.112.182.165 2.89 2.664 1.8 3.274 6.994 8.68 5.92 6.159 10 6.271 11.155 5.709.981-.478-1.012-3.745-3.22-7.417-.107-.176-.212-.356-.322-.535-.294-.488-.586-.983-.878-1.474-2.588-4.419-1.923-6.492-1.31-13.069.5-5.344 8.314-29.857 8.314-29.857l-11.345-1.954s-3.416 19.519-7.181 22.525c-2.013 1.6-4.266 1.622-6.2 2.81a8.809 8.809 0 0 0-.4.255 14.867 14.867 0 0 0-3.1 2.494" fill="#ffb27d"/><path d="M202.729 246.004a3.129 3.129 0 0 0-.558 3.348.026.026 0 0 0 .009.017c.988 2.229 3.589 4.709 6.585 7.189a34.161 34.161 0 0 1 1.281 1.113l.182.165c2.89 2.664 1.8 3.274 6.994 8.68 5.92 6.159 10 6.271 11.155 5.709.981-.478-1.012-3.745-3.22-7.417a25.224 25.224 0 0 1-10.553-7.775c-3.565-4.549-5.942-10.393-8.369-13.779q-.205.124-.4.255a14.867 14.867 0 0 0-3.1 2.494" fill="#233862"/><path d="M294.21 238.918c.7 3.5 5.692 2.918 11.269 1.555s4.252.258 12.188-.621 10.341-3.838 10.584-5.018c.217-1.047-3.7-1.417-7.912-1.9-.529-.059-1.06-.125-1.592-.191-4.749-.6-8.227-3.66-12.542-6.178-4.086-2.384-10.184-12.1-10.184-12.1l-10.885.863s5.712 8.676 7.922 12.447c1.3 2.219 1.23 5.152 1.068 7.418a13.976 13.976 0 0 0 .084 3.724" fill="#ffb27d"/><path d="M305.48 240.473c5.577-1.363 4.252.257 12.188-.622s10.341-3.838 10.583-5.018c.217-1.047-3.7-1.416-7.911-1.9l-.04.081a22.373 22.373 0 0 1-11.367 3.533c-5.385.131-11.088-1.412-14.807-1.352a13.963 13.963 0 0 0 .084 3.723c.7 3.5 5.692 2.918 11.269 1.555M252.497 169.318l-10.175 27.381-13.285 35.751a21.527 21.527 0 0 1-7.057-.645 30.64 30.64 0 0 1-6.825-3.322s3.689-38.387 10.57-60.423c1.763-5.656 3.74-10.231 5.921-12.806 10.667-12.607 20.852 14.064 20.852 14.064" fill="#233862"/><path d="M242.15 125.834c-6.666-2.15-25.679.61-44.779 4.349l-4-6.6-41.254-3.222s-13.613 30.189-6.16 49.425a6.975 6.975 0 0 0 6.982 4.7s.6 0 .6 0 24.553-.014 32.526-.014c20.516 0 43.419-14.1 46.382-14.7 4.85-.97 6.789 8.729 11.639 18.913s45.585 45.1 45.585 45.1 6.261.062 8.847-.908a8.714 8.714 0 0 0 3.8-2.4s-45.138-89.8-60.171-94.654" fill="#2b478b"/><path d="M191.75 3.462C186.466.687 178.425.312 177.118.136c-15.632-2.1-25.041 20.615-25.595 27.5-1.02 12.687-7.731 14.622-17.178 22.567-18.942 15.931-13.387 34.444-3.03 41.322 6.214 4.127 17.168 0 17.168 0 .155.108 29.957-16.66 44.647-24.749 22.023-3.13 12.086-56.24-1.381-63.312" fill="#233862"/><path d="M180.818 59.889c.064.042-7.228 2.532-12.1.372-4.587-2.027-8.063-9.575-7.995-9.579 2.087-.1 4.378-1.921 6.142-13.892l.889.319 14.941 5.376s-1.083 4.794-1.783 9.358c-.59 3.832-.906 7.5-.09 8.046" fill="#ffb27d"/><path d="M182.691 42.49s-1.083 4.794-1.783 9.358c-8.582-1.545-11.95-10.095-13.158-14.735Z" fill="#ed975d"/><path d="M184.916 47.244s-20.442-2.744-18.537-15.448.549-21.613 13.681-20.4 14.935 6.441 15.331 10.841-5.108 25.4-10.475 25.01" fill="#ffb27d"/><path d="M194.646 15.27s-13.083 11.274-21.983 12.186-12.271-1.948-12.271-1.948a34.757 34.757 0 0 0 8.4-11.386 6.258 6.258 0 0 1 5.16-3.689c6.355-.549 18.4-.8 20.694 4.837" fill="#233862"/><path d="M186.466 14.259s4.378 4.233 5.756 7.373c1.331 3.03 1.729 10.275.67 13.153 0 0 6.821-13.262 2.959-19.707-4.095-6.832-9.385-.819-9.385-.819" fill="#233862"/><path d="M198.031 90.002c-.618 41.379-.17 32.733-4.7 36.659-1.091.946-4.157 1.509-8.192 1.775-12.688.842-34.993-1.248-35.841-3.593-2.927-8.113-.86-10.634-3.3-23.056a102.55 102.55 0 0 0-.939-4.308c-2.036-8.532-4.017-11.434 3.205-25.14 6.55-12.416 13.355-22.492 13.967-22.129 17.281 10.258 18.675 1.636 18.675 1.636s17.426 17.972 17.124 38.156" fill="#fff"/><path d="m242.322 196.698-13.285 35.751a21.528 21.528 0 0 1-7.057-.645 30.623 30.623 0 0 1-6.825-3.322s3.689-38.387 10.57-60.423Z" fill="#2b478b"/><path d="M180.908 51.843s17.782 3.015 19.87 10.671 14.376 52.664 14.376 52.664-9.039 1.624-13.216-2.552-14.531-38.744-14.531-38.744Z" fill="#fff"/><path d="M185.143 128.436c-12.688.842-34.993-1.248-35.841-3.593-2.927-8.113-.86-10.634-3.3-23.056l6.12-17.233s-1.012 19.19 4.648 24.238 23.171 9.743 25.922 13.961a15.429 15.429 0 0 1 2.454 5.683" fill="#ebf3ff"/><path d="M170.605 120.365s12.518-2.787 14.538-1.676 6.956 5.156 7.574 6.564-4.5-1.069-6.161-1.515c-1.077-.289-3.913.7-5.317 1.164-5.908 1.97-9.528.956-9.528.956Z" fill="#ffb27d"/><path d="M162.222 50.201s-16.808 1.035-22.627 9.151c-8.191 11.424-24.439 60.11-15.127 66.6 10.487 7.312 47.728 1.913 47.728 1.913s1.239-5.793-.485-8.595-29.745-7.329-31.038-8.622 16.166-25.218 16.166-29.1 5.383-31.352 5.383-31.352" fill="#fff"/><path d="M185.748 122.173s2.623 3.383 3.483 3.787a2.564 2.564 0 0 0 1.415.3l-1.767-3.181ZM185.143 118.689l7.626 3.7a1.358 1.358 0 0 1-1.263.488 18.2 18.2 0 0 1-3.308-.909Z" fill="#ffb27d"/><path d="M189.232 131.14h60.321l18.146-45.124h-60.228Z" fill="#f99746"/><path d="M250.26 129.384h-79.655v1.758h78.948Z" fill="#ed7d2b"/><path d="M234.325 108.581a2.09 2.09 0 0 0-2.048-2.872 4.116 4.116 0 0 0-3.7 2.872 2.09 2.09 0 0 0 2.049 2.872 4.116 4.116 0 0 0 3.7-2.872" fill="#fff"/><path d="M444.156 131.794H5.777A5.777 5.777 0 0 0 0 137.571v3.7a5.776 5.776 0 0 0 5.777 5.776h9.333l-2.863 124.061a1.923 1.923 0 0 0 1.923 1.968h.183a2.078 2.078 0 0 0 2.075-1.959l7.133-124.072h403.9l7.139 124.069a2.078 2.078 0 0 0 2.074 1.959h.183a1.923 1.923 0 0 0 1.923-1.968l-2.862-124.063h8.24a5.776 5.776 0 0 0 5.776-5.776v-3.7a5.777 5.777 0 0 0-5.776-5.777" fill="#739af0"/><path d="m78.243 101.194 3.01 31.234h16.934l3.387-31.234Z" fill="#bce9ff"/></g><g clip-path="url(#e)" transform="translate(1295 599.266)"><path d="M81.047 66.105s-8.135-9.491-.5-15.519c0 0 5.576-3.376 10.122-3.1 0 0-6.442 10.8-4.358 11.878s6.311-12.555 6.311-12.555 12.688-1.231 16.77.732c0 0-10.847 8.877-8.563 9.405s14-8.184 14-8.184 11.81 2.01 11.18 9.214-4.7 9.429-6.487 9.237-12.251-4.185-12.478-2.72 6.07 6.254 10.48 6.478c0 0-8.326 9.182-13.859 6.533s-6.006-6.851-9.455-8.427-6.394-1.571-4.97.035 7.667 3.169 9.639 6.658 3.743 5.842-1.983 4.981-15.031-5.051-15.44-9.847Z" fill="#b5ceef"/><path d="M120.206 58.168S88.13 56.927 81.05 66.105a23.2 23.2 0 0 1-6.387 8.964l-.752 2.048s5.558-5.861 7.547-6.215c0 0-3.11-11.365 38.751-12.734" fill="#c8dbf4"/><path d="M74.66 75.069a20.14 20.14 0 0 0-7.363 14.189l1.249.112s2.2-9.407 6.173-13.085-.06-1.216-.06-1.216" fill="#c8dbf4"/><path d="M47.468 49.113s12.941-7.25 6.902-17.082c0 0-4.831-6.039-10.008-7.592 0 0 2.761 14.667 0 15.012s-1.9-16.564-1.9-16.564-13.631-6.557-18.98-6.039c0 0 8.455 14.321 5.694 13.976S16.927 15.985 16.927 15.985 2.951 13.396.708 21.678s1.38 12.423 3.451 12.941 15.357.345 15.012 2.071-9.318 4.486-14.322 2.933c0 0 5.522 13.631 12.769 12.941s9.49-5.176 13.976-5.522 7.765.863 5.521 2.071-9.835.4-13.459 3.476-6.557 4.978.173 6.359 18.808.518 21.223-4.659Z" fill="#d9eaff"/><path d="M7.092 24.267S43.329 36 47.468 49.114a27.524 27.524 0 0 0 3.451 12.6v2.588s-3.8-8.8-5.867-10.008c0 0 8.11-11.388-37.96-30.023" fill="#c8dbf4"/><path d="M50.919 61.709a23.9 23.9 0 0 1 2.4 18.815l-1.438-.386s1.4-11.377-1.528-17.1.564-1.33.564-1.33" fill="#c8dbf4"/><path d="M73.191 44.175s-17.059-9.553-9.1-22.517c0 0 6.369-7.96 13.192-10.008 0 0-3.639 19.333 0 19.788s2.5-21.835 2.5-21.835S97.756.96 104.806 1.642c0 0-11.145 18.878-7.506 18.423S113.449.5 113.449.5s18.423-3.411 21.38 7.506-1.82 16.376-4.549 17.058-20.243.455-19.788 2.729 12.283 5.914 18.878 3.867c0 0-7.278 17.968-16.831 17.058S100.03 41.9 94.121 41.445s-10.235 1.137-7.278 2.729 12.965.522 17.741 4.582 8.643 6.563-.228 8.382-24.792.682-27.976-6.141Z" fill="#bedbff"/><path d="M126.41 11.422S78.651 26.888 73.192 44.176a36.288 36.288 0 0 1-4.549 16.6v3.412s5-11.6 7.733-13.192c0 0-10.69-15.012 50.038-39.576" fill="#d4e4f8"/><path d="M68.643 60.778s-7.366 11.186-3.167 24.8l1.9-.509s-1.839-15 2.014-22.54-.743-1.753-.743-1.753" fill="#d4e4f8"/><path d="M67.48 110.051a33.415 33.415 0 0 0 33.415-33.415h-66.83a33.415 33.415 0 0 0 33.415 33.415" fill="#d4e4f8"/><path d="M101.357 111.751H33.604a4.122 4.122 0 0 1 4.122-4.122h59.508a4.122 4.122 0 0 1 4.122 4.122" fill="#d4e4f8"/><path fill="#9fc1f4" d="M32.967 76.636h68.689v1.025H32.967z"/></g><g transform="translate(115.413 -68.859)"><g transform="translate(544.59 279.86)" filter="url(#f)"><path d="M840.35 151H668.652a11.089 11.089 0 0 1-11.089-11.089V109.88a11.089 11.089 0 0 1 11.089-11.09h171.7a11.089 11.089 0 0 1 11.087 11.09v30.032A11.089 11.089 0 0 1 840.35 151" fill="#ebf3ff"/></g><path d="M1383.716 400.174h-119.544a3.3 3.3 0 1 1 0-6.591h119.544a3.3 3.3 0 1 1 0 6.591M1330.647 416.417h-66.475a3.3 3.3 0 0 1 0-6.591h66.476a3.3 3.3 0 1 1 0 6.591" fill="#cad9ea"/><circle cx="17" cy="17" r="17" transform="translate(1212 388)" fill="#cad9ea"/><path d="M1236.745 402.6h-4.063a.451.451 0 0 1-.451-.451v-4.064a.451.451 0 0 0-.451-.451h-5.266a.451.451 0 0 0-.451.451v4.064a.451.451 0 0 1-.451.451h-4.064a.451.451 0 0 0-.451.451v5.266a.451.451 0 0 0 .451.451h4.064a.451.451 0 0 1 .451.451v4.064a.451.451 0 0 0 .451.451h5.266a.451.451 0 0 0 .451-.451v-4.064a.451.451 0 0 1 .451-.451h4.063a.451.451 0 0 0 .451-.451v-5.266a.451.451 0 0 0-.451-.451" fill="#fff"/></g><g transform="translate(-382.149 16.246)"><g transform="translate(1042.15 194.75)" filter="url(#g)"><path d="M342.79 236.11H171.092a11.089 11.089 0 0 1-11.089-11.089V194.99a11.089 11.089 0 0 1 11.089-11.09h171.7a11.089 11.089 0 0 1 11.087 11.09v30.032a11.089 11.089 0 0 1-11.089 11.088" fill="#ebf3ff"/></g><path d="M1383.716 400.174h-119.544a3.3 3.3 0 1 1 0-6.591h119.544a3.3 3.3 0 1 1 0 6.591M1330.647 416.417h-66.475a3.3 3.3 0 0 1 0-6.591h66.476a3.3 3.3 0 1 1 0 6.591" fill="#cad9ea"/><circle cx="17" cy="17" r="17" transform="translate(1212 388)" fill="#cad9ea"/><path d="M1236.745 402.6h-4.063a.451.451 0 0 1-.451-.451v-4.064a.451.451 0 0 0-.451-.451h-5.266a.451.451 0 0 0-.451.451v4.064a.451.451 0 0 1-.451.451h-4.064a.451.451 0 0 0-.451.451v5.266a.451.451 0 0 0 .451.451h4.064a.451.451 0 0 1 .451.451v4.064a.451.451 0 0 0 .451.451h5.266a.451.451 0 0 0 .451-.451v-4.064a.451.451 0 0 1 .451-.451h4.063a.451.451 0 0 0 .451-.451v-5.266a.451.451 0 0 0-.451-.451" fill="#fff"/></g><g transform="translate(115.413 -1.649)"><g transform="translate(544.59 212.65)" filter="url(#h)"><path d="M840.35 218.21H668.652a11.089 11.089 0 0 1-11.089-11.089V177.09A11.089 11.089 0 0 1 668.652 166h171.7a11.089 11.089 0 0 1 11.087 11.09v30.032a11.089 11.089 0 0 1-11.089 11.088" fill="#ebf3ff"/></g><path d="M1383.716 400.174h-119.544a3.3 3.3 0 1 1 0-6.591h119.544a3.3 3.3 0 1 1 0 6.591M1330.647 416.417h-66.475a3.3 3.3 0 0 1 0-6.591h66.476a3.3 3.3 0 1 1 0 6.591" fill="#cad9ea"/><circle cx="17" cy="17" r="17" transform="translate(1212 388)" fill="#cad9ea"/><path d="M1236.745 402.6h-4.063a.451.451 0 0 1-.451-.451v-4.064a.451.451 0 0 0-.451-.451h-5.266a.451.451 0 0 0-.451.451v4.064a.451.451 0 0 1-.451.451h-4.064a.451.451 0 0 0-.451.451v5.266a.451.451 0 0 0 .451.451h4.064a.451.451 0 0 1 .451.451v4.064a.451.451 0 0 0 .451.451h5.266a.451.451 0 0 0 .451-.451v-4.064a.451.451 0 0 1 .451-.451h4.063a.451.451 0 0 0 .451-.451v-5.266a.451.451 0 0 0-.451-.451" fill="#fff"/></g><g transform="translate(115.413 65.561)"><g transform="translate(544.59 145.44)" filter="url(#i)"><path d="M840.35 285.42H668.652a11.089 11.089 0 0 1-11.089-11.089V244.3a11.089 11.089 0 0 1 11.089-11.09h171.7a11.089 11.089 0 0 1 11.087 11.09v30.032a11.089 11.089 0 0 1-11.089 11.088" fill="#ebf3ff"/></g><path d="M1383.716 400.174h-119.544a3.3 3.3 0 1 1 0-6.591h119.544a3.3 3.3 0 1 1 0 6.591M1330.647 416.417h-66.475a3.3 3.3 0 0 1 0-6.591h66.476a3.3 3.3 0 1 1 0 6.591" fill="#cad9ea"/><circle cx="17" cy="17" r="17" transform="translate(1212 388)" fill="#cad9ea"/><path d="M1236.745 402.6h-4.063a.451.451 0 0 1-.451-.451v-4.064a.451.451 0 0 0-.451-.451h-5.266a.451.451 0 0 0-.451.451v4.064a.451.451 0 0 1-.451.451h-4.064a.451.451 0 0 0-.451.451v5.266a.451.451 0 0 0 .451.451h4.064a.451.451 0 0 1 .451.451v4.064a.451.451 0 0 0 .451.451h5.266a.451.451 0 0 0 .451-.451v-4.064a.451.451 0 0 1 .451-.451h4.063a.451.451 0 0 0 .451-.451v-5.266a.451.451 0 0 0-.451-.451" fill="#fff"/></g><g transform="translate(660 211)" filter="url(#j)"><rect width="63" height="80" rx="9" transform="translate(529 170)" fill="#fff"/></g><g transform="translate(-31 -11)"><g transform="translate(691 222)" filter="url(#k)"><rect width="63" height="80" rx="9" transform="translate(517 160)" fill="#fff"/></g><circle cx="12" cy="12" r="12" transform="translate(1212 388)" fill="#95c0f4"/><path d="M1220 397h4v6h-4a3 3 0 0 1-3-3 3 3 0 0 1 3-3Z" fill="#c9dfff"/><path d="M1224 397h4a3 3 0 0 1 3 3 3 3 0 0 1-3 3h-4v-6Z" fill="#fff"/><rect width="24" height="3" rx="1.5" transform="translate(1241 395)" fill="#cad9ea"/><rect width="24" height="3" rx="1.5" transform="translate(1241 404)" fill="#cad9ea"/><rect width="52" height="3" rx="1.5" transform="translate(1213 419)" fill="#cad9ea"/><rect width="52" height="3" rx="1.5" transform="translate(1213 428)" fill="#cad9ea"/><rect width="52" height="3" rx="1.5" transform="translate(1213 437)" fill="#cad9ea"/><rect width="33" height="3" rx="1.5" transform="translate(1213 446)" fill="#cad9ea"/></g><g transform="translate(-129 -72)"><g transform="translate(789 283)" filter="url(#l)"><rect width="63" height="80" rx="9" transform="translate(419 99)" fill="#fff"/></g><circle cx="12" cy="12" r="12" transform="translate(1212 388)" fill="#95c0f4"/><path d="M1220 397h4v6h-4a3 3 0 0 1-3-3 3 3 0 0 1 3-3Z" fill="#c9dfff"/><path d="M1224 397h4a3 3 0 0 1 3 3 3 3 0 0 1-3 3h-4v-6Z" fill="#fff"/><rect width="24" height="3" rx="1.5" transform="translate(1241 395)" fill="#cad9ea"/><rect width="24" height="3" rx="1.5" transform="translate(1241 404)" fill="#cad9ea"/><rect width="52" height="3" rx="1.5" transform="translate(1213 419)" fill="#cad9ea"/><rect width="52" height="3" rx="1.5" transform="translate(1213 428)" fill="#cad9ea"/><rect width="52" height="3" rx="1.5" transform="translate(1213 437)" fill="#cad9ea"/><rect width="33" height="3" rx="1.5" transform="translate(1213 446)" fill="#cad9ea"/></g><path d="m1406.195 488-23.482 33.085h-55.28" fill="none" stroke="#8498ff" stroke-linecap="round" stroke-width="2"/><g transform="translate(56 100)"><g transform="translate(604 111)" filter="url(#m)"><rect width="63" height="80" rx="9" transform="translate(604 271)" fill="#fff"/></g><circle cx="12" cy="12" r="12" transform="translate(1212 388)" fill="#95c0f4"/><path d="M1220 397h4v6h-4a3 3 0 0 1-3-3 3 3 0 0 1 3-3Z" fill="#c9dfff"/><path d="M1224 397h4a3 3 0 0 1 3 3 3 3 0 0 1-3 3h-4v-6Z" fill="#fff"/><rect width="24" height="3" rx="1.5" transform="translate(1241 395)" fill="#cad9ea"/><rect width="24" height="3" rx="1.5" transform="translate(1241 404)" fill="#cad9ea"/><rect width="52" height="3" rx="1.5" transform="translate(1213 419)" fill="#cad9ea"/><rect width="52" height="3" rx="1.5" transform="translate(1213 428)" fill="#cad9ea"/><rect width="52" height="3" rx="1.5" transform="translate(1213 437)" fill="#cad9ea"/><rect width="33" height="3" rx="1.5" transform="translate(1213 446)" fill="#cad9ea"/></g><circle cx="4" cy="4" r="4" transform="translate(1323 517)" fill="#7298ee"/></g></svg>