<svg xmlns="http://www.w3.org/2000/svg" xmlns:xlink="http://www.w3.org/1999/xlink" width="37.489" height="50.397" viewBox="0 0 37.489 50.397"><defs><clipPath id="a"><rect width="37.489" height="50.397" fill="#106499"/></clipPath></defs><g clip-path="url(#a)"><path d="M15.169,11.874H7.2a3.26,3.26,0,1,1,0-6.519h7.973a3.26,3.26,0,0,1,0,6.519M7.2,7a1.618,1.618,0,1,0,0,3.235h7.973a1.618,1.618,0,1,0,0-3.235Z" transform="translate(15.794 -0.911)" fill="#f99746"/><path d="M12.5,11.873a.821.821,0,0,1-.821-.821V6.175a.821.821,0,0,1,1.641,0v4.878a.821.821,0,0,1-.821.821" transform="translate(14.476 -0.911)" fill="#f99746"/><path d="M35.008,11.874H27.035a3.26,3.26,0,1,1,0-6.519h7.973a3.26,3.26,0,1,1,0,6.519M27.035,7a1.618,1.618,0,1,0,0,3.235h7.973a1.618,1.618,0,1,0,0-3.235Z" transform="translate(-19.813 -0.911)" fill="#106499"/><path d="M32.34,11.873a.821.821,0,0,1-.821-.821V6.175a.821.821,0,0,1,1.641,0v4.878a.821.821,0,0,1-.821.821" transform="translate(-21.13 -0.911)" fill="#106499"/><path d="M15.169,22.415H7.2a3.26,3.26,0,1,1,0-6.519h7.973a3.26,3.26,0,0,1,0,6.519M7.2,17.537a1.618,1.618,0,1,0,0,3.236h7.973a1.618,1.618,0,1,0,0-3.236Z" transform="translate(15.794 -2.705)" fill="#f99746"/><path d="M12.5,22.416a.821.821,0,0,1-.821-.821V16.718a.821.821,0,1,1,1.641,0V21.6a.821.821,0,0,1-.821.821" transform="translate(14.476 -2.705)" fill="#f99746"/><path d="M35.008,22.415H27.035a3.26,3.26,0,1,1,0-6.519h7.973a3.26,3.26,0,1,1,0,6.519m-7.973-4.878a1.618,1.618,0,1,0,0,3.236h7.973a1.618,1.618,0,1,0,0-3.236Z" transform="translate(-19.813 -2.705)" fill="#106499"/><path d="M32.34,22.416a.821.821,0,0,1-.821-.821V16.718a.821.821,0,1,1,1.641,0V21.6a.821.821,0,0,1-.821.821" transform="translate(-21.13 -2.705)" fill="#106499"/><path d="M15.169,32.957H7.2a3.26,3.26,0,1,1,0-6.519h7.973a3.26,3.26,0,0,1,0,6.519M7.2,28.079a1.618,1.618,0,0,0,0,3.236h7.973a1.618,1.618,0,1,0,0-3.236Z" transform="translate(15.794 -4.499)" fill="#f99746"/><path d="M12.5,32.957a.821.821,0,0,1-.821-.821V27.259a.821.821,0,1,1,1.641,0v4.878a.821.821,0,0,1-.821.821" transform="translate(14.476 -4.499)" fill="#f99746"/><path d="M35.008,32.957H27.035a3.26,3.26,0,1,1,0-6.519h7.973a3.26,3.26,0,1,1,0,6.519m-7.973-4.878a1.618,1.618,0,1,0,0,3.236h7.973a1.618,1.618,0,1,0,0-3.236Z" transform="translate(-19.813 -4.499)" fill="#106499"/><path d="M32.34,32.957a.821.821,0,0,1-.821-.821V27.259a.821.821,0,1,1,1.641,0v4.878a.821.821,0,0,1-.821.821" transform="translate(-21.13 -4.499)" fill="#106499"/><path d="M15.169,43.5H7.2a3.26,3.26,0,1,1,0-6.519h7.973a3.26,3.26,0,0,1,0,6.519M7.2,38.621a1.618,1.618,0,0,0,0,3.236h7.973a1.618,1.618,0,0,0,0-3.236Z" transform="translate(15.794 -6.293)" fill="#f99746"/><path d="M12.5,43.5a.821.821,0,0,1-.821-.821V37.8a.821.821,0,1,1,1.641,0v4.878a.821.821,0,0,1-.821.821" transform="translate(14.476 -6.293)" fill="#f99746"/><path d="M35.008,43.5H27.035a3.26,3.26,0,1,1,0-6.519h7.973a3.26,3.26,0,1,1,0,6.519m-7.973-4.878a1.618,1.618,0,1,0,0,3.236h7.973a1.618,1.618,0,1,0,0-3.236Z" transform="translate(-19.813 -6.293)" fill="#106499"/><path d="M32.34,43.5a.821.821,0,0,1-.821-.821V37.8a.821.821,0,0,1,1.641,0v4.878a.821.821,0,0,1-.821.821" transform="translate(-21.13 -6.293)" fill="#106499"/><path d="M15.169,54.041H7.2a3.26,3.26,0,1,1,0-6.519h7.973a3.26,3.26,0,0,1,0,6.519M7.2,49.163a1.618,1.618,0,1,0,0,3.235h7.973a1.618,1.618,0,1,0,0-3.235Z" transform="translate(15.794 -8.087)" fill="#f99746"/><path d="M12.5,54.041a.821.821,0,0,1-.821-.821V48.343a.821.821,0,1,1,1.641,0V53.22a.821.821,0,0,1-.821.821" transform="translate(14.476 -8.087)" fill="#f99746"/><path d="M35.008,54.041H27.035a3.26,3.26,0,1,1,0-6.519h7.973a3.26,3.26,0,1,1,0,6.519m-7.973-4.878a1.618,1.618,0,1,0,0,3.235h7.973a1.618,1.618,0,1,0,0-3.235Z" transform="translate(-19.813 -8.087)" fill="#106499"/><path d="M32.34,54.041a.821.821,0,0,1-.821-.821V48.343a.821.821,0,0,1,1.641,0V53.22a.821.821,0,0,1-.821.821" transform="translate(-21.13 -8.087)" fill="#106499"/><path d="M44.02,44.23a.821.821,0,0,1-.821-.821V42.1a.821.821,0,1,1,1.641,0v1.314a.821.821,0,0,1-.821.821" transform="translate(-7.351 -7.024)" fill="#106499"/><path d="M44.02,33.381a.821.821,0,0,1-.821-.821V29.608a.821.821,0,1,1,1.641,0V32.56a.821.821,0,0,1-.821.821m0-8.857A.821.821,0,0,1,43.2,23.7V20.752a.821.821,0,1,1,1.641,0V23.7a.821.821,0,0,1-.821.821" transform="translate(-7.351 -3.392)" fill="#106499"/><path d="M44.02,14.187a.821.821,0,0,1-.821-.821V12.053a.821.821,0,1,1,1.641,0v1.314a.821.821,0,0,1-.821.821" transform="translate(-7.351 -1.912)" fill="#106499"/><path d="M32.334,50.4H5.154A5.16,5.16,0,0,1,0,45.243V5.154A5.16,5.16,0,0,1,5.154,0h27.18a5.16,5.16,0,0,1,5.154,5.154v4.987a.821.821,0,1,1-1.641,0V5.154a3.516,3.516,0,0,0-3.513-3.513H5.154A3.515,3.515,0,0,0,1.642,5.154V45.243a3.515,3.515,0,0,0,3.512,3.513h27.18a3.516,3.516,0,0,0,3.513-3.513V36.385a.821.821,0,1,1,1.641,0v8.858A5.16,5.16,0,0,1,32.334,50.4" transform="translate(0 0)" fill="#106499"/></g></svg>