<svg xmlns="http://www.w3.org/2000/svg" xmlns:xlink="http://www.w3.org/1999/xlink" width="62.613" height="50.532" viewBox="0 0 62.613 50.532"><defs><clipPath id="a"><rect width="62.613" height="50.532" fill="#106499"/></clipPath></defs><g clip-path="url(#a)"><path d="M52.864,1.332A13.1,13.1,0,0,0,48.471.575,13.564,13.564,0,0,0,38.276,5.3,13.566,13.566,0,0,0,28.081.575,14.164,14.164,0,0,0,15.169,9.719a4.294,4.294,0,0,1,1.837.2A12.33,12.33,0,0,1,28.081,2.339a11.935,11.935,0,0,1,9.493,4.889.913.913,0,0,0,1.4,0,11.935,11.935,0,0,1,9.493-4.888,11.347,11.347,0,0,1,3.8.655.882.882,0,1,0,.591-1.662" transform="translate(0 0)" fill="#f99746"/><path d="M62.611,15.965A15.933,15.933,0,0,0,58.246,4.844a.882.882,0,1,0-1.273,1.222A14.2,14.2,0,0,1,60.847,16a9.51,9.51,0,0,1-.053,1.091A14.758,14.758,0,0,1,60,20.882c-1.86,6.034-7.144,14.7-21.725,21.864-7.221-3.547-12.829-7.834-16.739-12.74a3.217,3.217,0,0,1-1.109,1.437C24.561,36.5,30.412,40.9,37.892,44.522a.882.882,0,0,0,.768,0c15.445-7.475,21.047-16.7,23.017-23.089a16.458,16.458,0,0,0,.875-4.195,10.468,10.468,0,0,0,.059-1.273" transform="translate(0 0)" fill="#f99746"/><path d="M22.022,16.847a.882.882,0,0,1-.882-.882c0-4.142,3.113-7.512,6.94-7.512.139,0,.278.005.415.013a.882.882,0,0,1-.113,1.761c-.1-.006-.2-.009-.3-.009A5.49,5.49,0,0,0,22.9,15.965a.882.882,0,0,1-.882.882" transform="translate(0 0)" fill="#f99746"/><path d="M50.169,23.152h-4.23a.884.884,0,0,0-.781.472l-1.3,2.472V12.65a.882.882,0,0,0-1.7-.326L37.677,23.575h-2.03a.882.882,0,0,0-.818.551l-1.38,3.411L30.722,16.63a.882.882,0,0,0-.81-.667.869.869,0,0,0-.875.578l-3.261,8.923L24,23.693a.882.882,0,0,0-.624-.259H21.8V25.2h1.212l2.491,2.49a.882.882,0,0,0,1.452-.32l2.749-7.522,2.687,10.746a.881.881,0,0,0,.794.666c.021,0,.041,0,.062,0a.881.881,0,0,0,.817-.551l2.175-5.37h2.034a.882.882,0,0,0,.819-.556l3-7.535V29.674a.882.882,0,0,0,1.664.41l2.712-5.168h3.7a.882.882,0,1,0,0-1.764" transform="translate(0 0)" fill="#f99746"/><path d="M10.231,11.379a5.69,5.69,0,1,1,5.687-5.69,5.7,5.7,0,0,1-5.687,5.69m0-9.451a3.761,3.761,0,1,0,3.76,3.761,3.765,3.765,0,0,0-3.76-3.761" transform="translate(0 0)" fill="#106499"/><path d="M12.723,50.532a3.118,3.118,0,0,1-2.433-1.049l-.148-.18-.156.174a3.279,3.279,0,0,1-2.417,1.055,3.148,3.148,0,0,1-.865-.121,2.955,2.955,0,0,1-2.09-3.459L4.551,30.076l-.266.093a3.15,3.15,0,0,1-1.749.124A3.288,3.288,0,0,1,0,27.055V17.79a5.468,5.468,0,0,1,5.462-5.461h9.49a5.475,5.475,0,0,1,5.462,5.461v9.265a3.2,3.2,0,0,1-3.21,3.308,3.209,3.209,0,0,1-1.019-.178l-.26-.086L15.75,46.91A2.95,2.95,0,0,1,13.7,50.4a3.666,3.666,0,0,1-.981.134M5.505,17.782a.965.965,0,0,1,.964.964l0,11.493.077,16.806a1.011,1.011,0,0,1-.036.269,1,1,0,0,0,.682,1.23,1.073,1.073,0,0,0,.344.06,1.565,1.565,0,0,0,.634-.142,1.017,1.017,0,0,0,.477-.408L9.3,31.388a.964.964,0,0,1,1.927.008l.491,16.779.033.049a1.213,1.213,0,0,0,.978.378,1.707,1.707,0,0,0,.452-.059,1,1,0,0,0,.677-1.231.962.962,0,0,1-.037-.273L14,27.627l.019-.187C14,27.286,14,27.22,14,27.152l0-8.406a.964.964,0,1,1,1.928,0l0,8.406a.931.931,0,0,1-.021.195,1.226,1.226,0,0,0,.355.7,1.357,1.357,0,0,0,.941.386,1.278,1.278,0,0,0,1.286-1.38V17.79a3.54,3.54,0,0,0-3.528-3.532H5.462A3.538,3.538,0,0,0,1.928,17.79v9.265a1.368,1.368,0,0,0,1.01,1.352,1.315,1.315,0,0,0,.272.028,1.352,1.352,0,0,0,.945-.386,1.279,1.279,0,0,0,.358-.629,1.634,1.634,0,0,0,.029-.267V18.746a.965.965,0,0,1,.964-.964" transform="translate(0 0)" fill="#106499"/></g></svg>