<svg xmlns="http://www.w3.org/2000/svg" xmlns:xlink="http://www.w3.org/1999/xlink" width="59.955" height="48.18" viewBox="0 0 59.955 48.18"><defs><clipPath id="a"><rect width="59.955" height="48.18" transform="translate(0 0)" fill="#106499"/></clipPath></defs><g clip-path="url(#a)"><path d="M51.717,21.591H47.908a.989.989,0,0,1-.989-.989V17.851H44.167a.989.989,0,0,1-.989-.989v-3.81a.989.989,0,0,1,.989-.989h2.752V9.312a.989.989,0,0,1,.989-.989h3.809a.989.989,0,0,1,.989.989v2.751h2.751a.989.989,0,0,1,.989.989v3.81a.989.989,0,0,1-.989.989H52.706V20.6a.988.988,0,0,1-.989.989M48.9,19.613h1.831V16.862a.989.989,0,0,1,.989-.989h2.751V14.041H51.717a.989.989,0,0,1-.989-.989V10.3H48.9v2.751a.989.989,0,0,1-.989.989H45.157v1.832h2.751a.989.989,0,0,1,.989.989Z" fill="#f99746"/><path d="M49.813,25.1A10.142,10.142,0,1,1,59.954,14.957,10.154,10.154,0,0,1,49.813,25.1m0-18.306a8.164,8.164,0,1,0,8.163,8.164,8.173,8.173,0,0,0-8.163-8.164" fill="#106499"/><path d="M36.2,48.18H2.832a.989.989,0,0,1-.989-.989V4.9a.989.989,0,0,1,.989-.989H36.2a.989.989,0,0,1,.989.989v42.29a.989.989,0,0,1-.989.989M3.821,46.2H35.209V5.891H3.821Z" fill="#106499"/><path d="M38.041,5.89H.989A.989.989,0,0,1,0,4.9V.989A.989.989,0,0,1,.989,0H38.041a.989.989,0,0,1,.989.989V4.9a.989.989,0,0,1-.989.989M1.978,3.912H37.052V1.978H1.978Z" fill="#106499"/><path d="M58.966,48.18H.989a.989.989,0,0,1,0-1.978H58.966a.989.989,0,1,1,0,1.978" fill="#106499"/><path d="M36.2,15.946H2.832a.989.989,0,0,1-.989-.99V10.107a.989.989,0,0,1,.989-.99H36.2a.989.989,0,0,1,.989.99v4.849a.989.989,0,0,1-.989.99M3.821,13.967H35.209V11.1H3.821Z" fill="#106499"/><path d="M36.2,25.548H2.832a.989.989,0,0,1-.989-.989v-4.85a.989.989,0,0,1,.989-.989H36.2a.989.989,0,0,1,.989.989v4.85a.989.989,0,0,1-.989.989M3.821,23.57H35.209V20.7H3.821Z" fill="#106499"/><path d="M36.2,35.15H2.832a.989.989,0,0,1-.989-.989V29.312a.989.989,0,0,1,.989-.989H36.2a.989.989,0,0,1,.989.989v4.849a.989.989,0,0,1-.989.989M3.821,33.172H35.209V30.3H3.821Z" fill="#106499"/><path d="M26.111,48.18H12.92a.989.989,0,0,1-.99-.989V38.768a.989.989,0,0,1,.99-.989H26.111a.989.989,0,0,1,.989.989v8.423a.989.989,0,0,1-.989.989M13.909,46.2H25.122V39.758H13.909Z" fill="#106499"/><path d="M19.515,48a.989.989,0,0,1-.989-.989V38.768a.989.989,0,1,1,1.978,0v8.245a.989.989,0,0,1-.989.989" fill="#106499"/><path d="M40.66,15.946H36.2a.989.989,0,1,1,0-1.978H40.66a.989.989,0,0,1,0,1.978" fill="#106499"/><path d="M42.794,36.9a.989.989,0,0,1-.989-.989V33.58a.989.989,0,1,1,1.978,0v2.328a.989.989,0,0,1-.989.989" fill="#106499"/><path d="M43.958,35.732H41.629a.989.989,0,1,1,0-1.978h2.329a.989.989,0,0,1,0,1.978" fill="#106499"/><path d="M50.977,43.969a.989.989,0,0,1-.989-.989V40.652a.989.989,0,1,1,1.978,0V42.98a.989.989,0,0,1-.989.989" fill="#106499"/><path d="M52.14,42.805H49.812a.989.989,0,0,1,0-1.978H52.14a.989.989,0,1,1,0,1.978" fill="#106499"/><path d="M55.438,32.144a.989.989,0,0,1-.989-.989V28.827a.989.989,0,1,1,1.978,0v2.328a.989.989,0,0,1-.989.989" fill="#106499"/><path d="M56.6,30.98H54.274a.989.989,0,0,1,0-1.978H56.6a.989.989,0,0,1,0,1.978" fill="#106499"/></g></svg>