<?xml version="1.0" encoding="UTF-8"?>
<svg data-bbox="3.5 3.5 827 273" xmlns="http://www.w3.org/2000/svg" viewBox="0 0 834 280" height="280" width="834" data-type="ugc">
    <g>
        <path fill="#000000" d="M830.5 40v200c0 20.158-16.342 36.5-36.5 36.5H40c-20.158 0-36.5-16.342-36.5-36.5V40C3.5 19.842 19.842 3.5 40 3.5h754c20.158 0 36.5 16.342 36.5 36.5z"/>
        <path fill="#ffffff" d="M173.13 134.873a34.624 34.624 0 0 1 4.492-16.618 34.531 34.531 0 0 1 11.932-12.386 35.338 35.338 0 0 0-12.13-10.831 35.248 35.248 0 0 0-15.686-4.24c-11.704-1.232-23.05 7.018-29.014 7.018-6.079 0-15.261-6.897-25.149-6.693a36.982 36.982 0 0 0-18.092 5.41A37.094 37.094 0 0 0 76.4 110.179c-13.48 23.39-3.425 57.765 9.487 76.672 6.46 9.258 14.01 19.599 23.889 19.232 9.667-.401 13.277-6.178 24.946-6.178 11.561 0 14.949 6.178 25.028 5.945 10.373-.168 16.909-9.299 23.142-18.644a76.653 76.653 0 0 0 10.583-21.603 33.343 33.343 0 0 1-14.788-12.295 33.46 33.46 0 0 1-5.558-18.434Zm-19.038-56.51a34.086 34.086 0 0 0 7.768-24.383 34.524 34.524 0 0 0-22.355 11.593 32.445 32.445 0 0 0-7.971 23.48 28.511 28.511 0 0 0 12.505-2.746 28.57 28.57 0 0 0 10.053-7.944Zm141.237 104.282H262.34l-7.922 23.446h-13.974l31.247-86.744h14.518l31.247 86.744h-14.212l-7.915-23.446Zm-29.573-10.819h26.15l-12.891-38.051h-.361l-12.898 38.051Zm119.183 2.647c0 19.653-10.496 32.279-26.333 32.279a21.349 21.349 0 0 1-11.514-2.672 21.425 21.425 0 0 1-8.34-8.392h-.3v31.325H325.5v-84.165h12.537v10.519h.239a22.41 22.41 0 0 1 8.505-8.372 22.337 22.337 0 0 1 11.586-2.809c16.015 0 26.572 12.688 26.572 32.286v.001Zm-13.313 0c0-12.804-6.602-21.222-16.675-21.222-9.897 0-16.553 8.595-16.553 21.221 0 12.744 6.656 21.278 16.553 21.278 10.073 0 16.675-8.357 16.675-21.278v.001Zm82.762 0c0 19.653-10.494 32.279-26.333 32.279a21.344 21.344 0 0 1-11.513-2.673 21.416 21.416 0 0 1-8.34-8.391h-.3v31.325H394.95v-84.165h12.537v10.519h.238a22.41 22.41 0 0 1 8.505-8.372 22.34 22.34 0 0 1 11.587-2.809c16.015 0 26.571 12.688 26.571 32.286v.001Zm-13.312 0c0-12.804-6.602-21.222-16.675-21.222-9.897 0-16.553 8.595-16.553 21.221 0 12.744 6.656 21.278 16.553 21.278 10.073 0 16.675-8.357 16.675-21.278v.001Zm59.213 7.449c.96 8.602 9.298 14.25 20.691 14.25 10.917 0 18.771-5.648 18.771-13.405 0-6.733-4.737-10.764-15.953-13.527l-11.217-2.708c-15.892-3.847-23.27-11.297-23.27-23.385 0-14.966 13.013-25.246 31.492-25.246 18.288 0 30.825 10.28 31.247 25.246h-13.075c-.783-8.656-7.922-13.882-18.356-13.882-10.434 0-17.573 5.288-17.573 12.982 0 6.133 4.56 9.742 15.715 12.504l9.535 2.347c17.757 4.208 25.136 11.358 25.136 24.045 0 16.229-12.898 26.394-33.412 26.394-19.194 0-32.152-9.926-32.989-25.615h13.258Zm81.095-54.04v14.966h12v10.28h-12v34.865c0 5.417 2.403 7.94 7.678 7.94a40.2 40.2 0 0 0 4.26-.3v10.22a35.563 35.563 0 0 1-7.194.599c-12.775 0-17.757-4.809-17.757-17.074v-36.25h-9.175v-10.28h9.175v-14.966h13.013Zm18.949 46.591c0-19.899 11.693-32.403 29.927-32.403 18.295 0 29.933 12.504 29.933 32.403 0 19.953-11.578 32.402-29.934 32.402-18.349 0-29.926-12.449-29.926-32.402Zm46.663 0c0-13.65-6.241-21.707-16.737-21.707-10.494 0-16.729 8.118-16.729 21.707 0 13.705 6.235 21.699 16.729 21.699 10.496 0 16.737-7.994 16.737-21.699Zm23.875-31.625h12.354v10.764h.299a15.088 15.088 0 0 1 5.565-8.414 15.027 15.027 0 0 1 9.613-3.012 19.956 19.956 0 0 1 4.438.484v12.143a18.088 18.088 0 0 0-5.82-.785 13.026 13.026 0 0 0-10.087 4.164 13.082 13.082 0 0 0-3.409 10.387v37.512h-12.953v-63.243Zm91.986 44.667c-1.743 11.481-12.898 19.36-27.17 19.36-18.357 0-29.75-12.326-29.75-32.102 0-19.837 11.455-32.703 29.205-32.703 17.458 0 28.436 12.02 28.436 31.195v4.448h-44.567v.784a16.482 16.482 0 0 0 4.454 12.797 16.426 16.426 0 0 0 12.521 5.117 14.252 14.252 0 0 0 8.758-2.025 14.302 14.302 0 0 0 5.814-6.871h12.299Zm-43.784-18.875h31.546a15.237 15.237 0 0 0-4.24-11.415 15.144 15.144 0 0 0-11.237-4.636c-2.11-.013-4.2.393-6.152 1.195a15.983 15.983 0 0 0-8.704 8.695 16.032 16.032 0 0 0-1.213 6.161ZM264.133 54.054c2.715-.195 5.44.216 7.978 1.204a18.392 18.392 0 0 1 6.697 4.51 18.445 18.445 0 0 1 4.128 6.947 18.487 18.487 0 0 1 .765 8.05c0 13.316-7.181 20.97-19.568 20.97h-15.021V54.054h15.021Zm-8.562 35.786h7.841c1.94.116 3.882-.203 5.683-.933a13.079 13.079 0 0 0 7.594-8.301 13.13 13.13 0 0 0 .437-5.756c.262-1.92.098-3.874-.481-5.723a13.138 13.138 0 0 0-7.581-8.24 13.085 13.085 0 0 0-5.652-.943h-7.841V89.84Zm35.426-9.846a14.904 14.904 0 0 1 8.784-15.046 14.841 14.841 0 0 1 17.018 3.604 14.916 14.916 0 0 1 3.797 11.442 14.93 14.93 0 0 1-3.786 11.462 14.858 14.858 0 0 1-11.013 4.89 14.844 14.844 0 0 1-11.014-4.89 14.91 14.91 0 0 1-3.786-11.462Zm23.229 0c0-6.819-3.056-10.806-8.419-10.806-5.384 0-8.412 3.987-8.412 10.806 0 6.873 3.029 10.83 8.412 10.83 5.363 0 8.419-3.985 8.419-10.83Zm45.717 15.74h-6.426l-6.485-23.166h-.49l-6.459 23.166h-6.364l-8.65-31.454h6.281l5.623 24.001h.462l6.453-24.002h5.941l6.453 24.002h.489l5.595-24.002h6.194l-8.617 31.456Zm15.892-31.454h5.963v4.997h.462a9.413 9.413 0 0 1 3.788-4.304 9.38 9.38 0 0 1 5.578-1.3 10.186 10.186 0 0 1 8.237 3.232 10.247 10.247 0 0 1 2.626 8.466v20.363h-6.194V76.93c0-5.055-2.192-7.569-6.772-7.569a7.185 7.185 0 0 0-5.575 2.26 7.212 7.212 0 0 0-1.919 5.711v18.401h-6.194V64.28ZM412.357 52h6.193v43.734h-6.193V52.002Zm14.804 27.994a14.926 14.926 0 0 1 3.798-11.444 14.862 14.862 0 0 1 11.003-4.879 14.846 14.846 0 0 1 11.004 4.88 14.92 14.92 0 0 1 3.798 11.443 14.92 14.92 0 0 1-3.789 11.459 14.87 14.87 0 0 1-11.013 4.887 14.844 14.844 0 0 1-11.012-4.888 14.92 14.92 0 0 1-3.789-11.458Zm23.229 0c0-6.819-3.056-10.806-8.419-10.806-5.384 0-8.412 3.987-8.412 10.806 0 6.873 3.028 10.83 8.412 10.83 5.363 0 8.419-3.985 8.419-10.83Zm12.894 6.845c0-5.662 4.206-8.926 11.673-9.39l8.5-.491v-2.715c0-3.322-2.191-5.198-6.424-5.198-3.458 0-5.854 1.272-6.541 3.496h-5.997c.633-5.403 5.704-8.868 12.824-8.868 7.867 0 12.305 3.926 12.305 10.57v21.492h-5.962v-4.42h-.49a10.573 10.573 0 0 1-4.048 3.745 10.54 10.54 0 0 1-5.379 1.193 9.457 9.457 0 0 1-7.314-2.38 9.516 9.516 0 0 1-3.147-7.033Zm20.173-2.688v-2.63l-7.663.492c-4.322.29-6.283 1.763-6.283 4.536 0 2.83 2.451 4.479 5.82 4.479a7.38 7.38 0 0 0 5.518-1.712 7.428 7.428 0 0 0 2.608-5.165Zm14.307-4.157c0-9.94 5.098-16.236 13.027-16.236 1.961-.09 3.908.38 5.612 1.358a10.357 10.357 0 0 1 4.012 4.16h.463V52h6.193v43.734h-5.935v-4.97h-.489a10.907 10.907 0 0 1-4.164 4.121 10.872 10.872 0 0 1-5.691 1.367c-7.985 0-13.028-6.296-13.028-16.259Zm6.398 0c0 6.67 3.138 10.686 8.385 10.686 5.22 0 8.447-4.073 8.447-10.66 0-6.555-3.261-10.685-8.447-10.685-5.214 0-8.385 4.041-8.385 10.659Zm48.534 0a14.939 14.939 0 0 1 3.798-11.442 14.871 14.871 0 0 1 4.987-3.605 14.833 14.833 0 0 1 12.031 0 14.901 14.901 0 0 1 8.091 8.923c.654 1.971.89 4.057.693 6.124a14.91 14.91 0 0 1-3.786 11.462 14.872 14.872 0 0 1-4.991 3.613 14.84 14.84 0 0 1-12.046 0 14.872 14.872 0 0 1-4.991-3.613 14.91 14.91 0 0 1-3.786-11.462Zm23.23 0c0-6.819-3.056-10.806-8.419-10.806-5.384 0-8.413 3.987-8.413 10.806 0 6.873 3.029 10.83 8.413 10.83 5.363 0 8.419-3.985 8.419-10.83Zm14.68-15.714h5.963v4.997h.462a9.415 9.415 0 0 1 3.789-4.304 9.375 9.375 0 0 1 5.577-1.3 10.186 10.186 0 0 1 8.237 3.232 10.234 10.234 0 0 1 2.626 8.466v20.363h-6.194V76.93c0-5.055-2.192-7.569-6.772-7.569a7.185 7.185 0 0 0-5.575 2.26 7.231 7.231 0 0 0-1.919 5.711v18.401h-6.193l-.001-31.454Zm61.651-7.831v7.974h6.799v5.229h-6.799v16.174c0 3.295 1.354 4.738 4.437 4.738a20.62 20.62 0 0 0 2.362-.144v5.171a20.15 20.15 0 0 1-3.369.317c-6.888 0-9.631-2.428-9.631-8.492V69.652h-4.982v-5.23h4.982V56.45l6.201-.001Zm15.259-4.448h6.139v17.334h.49a9.674 9.674 0 0 1 3.897-4.333 9.637 9.637 0 0 1 5.672-1.302 10.319 10.319 0 0 1 8.157 3.315 10.386 10.386 0 0 1 2.652 8.411v20.308h-6.2V76.959c0-5.025-2.335-7.569-6.711-7.569a7.314 7.314 0 0 0-5.801 2.146 7.35 7.35 0 0 0-2.101 5.829v18.37h-6.194V52.002Zm63.121 35.24a12.77 12.77 0 0 1-5.151 7.025 12.718 12.718 0 0 1-8.448 2.075 14.228 14.228 0 0 1-10.999-4.754 14.312 14.312 0 0 1-3.499-11.48 14.542 14.542 0 0 1 3.494-11.527 14.472 14.472 0 0 1 10.977-4.907c8.732 0 14 5.979 14 15.856v2.166H708.85v.348a8.335 8.335 0 0 0 2.19 6.358 8.298 8.298 0 0 0 6.168 2.653 7.509 7.509 0 0 0 4.312-.768 7.533 7.533 0 0 0 3.154-3.045h5.963ZM708.85 77.105h15.851a7.609 7.609 0 0 0-2.062-5.79 7.568 7.568 0 0 0-5.663-2.359 8.007 8.007 0 0 0-5.777 2.357 8.067 8.067 0 0 0-2.349 5.792Z"/>
        <path stroke-width="7" stroke="#A6A6A6" d="M830.5 40v200c0 20.158-16.342 36.5-36.5 36.5H40c-20.158 0-36.5-16.342-36.5-36.5V40C3.5 19.842 19.842 3.5 40 3.5h754c20.158 0 36.5 16.342 36.5 36.5z" fill="none"/>
    </g>
</svg>
