<?xml version="1.0" encoding="UTF-8"?>
<svg data-bbox="3.5 3.5 827 273" xmlns="http://www.w3.org/2000/svg" viewBox="0 0 834 280" height="280" width="834" data-type="ugc">
    <g>
        <path fill="#000000" d="M830.5 40v200c0 20.158-16.342 36.5-36.5 36.5H40c-20.158 0-36.5-16.342-36.5-36.5V40C3.5 19.842 19.842 3.5 40 3.5h754c20.158 0 36.5 16.342 36.5 36.5z"/>
        <g clip-path="url(#e846ded9-35db-4469-9cea-5b39e4e9e719)">
            <path fill="#ffffff" d="M263.422 96.501c5.788 0 10.579-1.92 14.227-5.742 3.227-3.236 4.837-7.615 4.827-12.973 0-.95-.091-1.929-.274-2.944l-.091-.511H262.8v5.768h13.541c-.356 2.807-1.316 4.974-2.88 6.537-2.688 2.679-5.979 4.005-10.03 4.014-3.803 0-7.031-1.317-9.81-3.995-2.752-2.67-4.124-6.08-4.133-10.386 0-4.306 1.381-7.716 4.133-10.386 2.779-2.679 6.007-3.986 9.81-3.995 4.224.009 7.415 1.408 9.793 4.233l.438.52 3.777-3.784.402-.402-.366-.44c-1.536-1.837-3.584-3.29-6.098-4.37-2.524-1.106-5.184-1.645-7.955-1.645-5.559 0-10.35 1.947-14.245 5.824-3.904 3.867-5.87 8.722-5.861 14.427 0 5.704 1.966 10.559 5.87 14.426 3.886 3.867 8.686 5.824 14.245 5.815l-.009.009Z"/>
            <path fill="#ffffff" d="M311.305 89.79h-17.08V79.14h15.407v-5.77h-15.407V62.71h17.08v-5.869h-23.151V95.66h23.151v-5.87Z"/>
            <path fill="#ffffff" d="M331.63 95.66V62.71h10.478v-5.87h-27.027v5.87h10.478v32.95h6.071Z"/>
            <path fill="#ffffff" d="M365.579 95.66V56.84h-6.071v38.82h6.071Z"/>
            <path fill="#ffffff" d="M386.955 95.66V62.71h10.478v-5.87h-27.027v5.87h10.478v32.95h6.071Z"/>
            <path fill="#ffffff" d="m417.667 90.64-.018-.018c3.785 3.913 8.576 5.888 14.199 5.888 5.623 0 10.414-1.966 14.199-5.888 3.795-3.894 5.706-8.73 5.706-14.362 0-5.596-1.92-10.423-5.724-14.336-3.813-3.94-8.585-5.924-14.181-5.924-5.623 0-10.414 1.975-14.199 5.888-3.795 3.894-5.706 8.73-5.706 14.363 0 5.631 1.902 10.468 5.706 14.362l.018.019v.009Zm14.181-28.761c3.868 0 7.077 1.334 9.747 4.031 2.66 2.707 3.986 6.108 3.986 10.34 0 4.243-1.335 7.644-3.986 10.34-2.67 2.707-5.87 4.032-9.747 4.032s-7.068-1.334-9.747-4.031c-2.651-2.707-3.977-6.108-3.986-10.34 0-4.243 1.335-7.644 3.986-10.34 2.679-2.707 5.87-4.032 9.747-4.032Z"/>
            <path fill="#ffffff" d="M457.897 95.66h5.44V71.624l-.156-5.284 18.259 29.32h5.998V56.84h-6.071v22.62l.146 5.293-17.408-27.912h-6.839V95.66h.631Z"/>
            <path fill="#ffffff" d="M283.903 158.002v11.3h26.991c-.805 6.354-2.926 10.998-6.145 14.226-3.922 3.931-10.075 8.274-20.846 8.274-16.622 0-29.615-13.412-29.615-30.061 0-16.648 12.993-30.06 29.615-30.06 8.96 0 15.507 3.529 20.343 8.073l7.955-7.963c-6.748-6.455-15.717-11.401-28.298-11.401-22.766-.009-41.903 18.55-41.903 41.342 0 22.792 19.137 41.361 41.903 41.361 12.288 0 21.55-4.032 28.801-11.602 7.452-7.46 9.774-17.956 9.774-26.431 0-2.624-.201-5.047-.604-7.058h-37.971Z"/>
            <path fill="#ffffff" d="M621.879 123.206h-27.95v78.277h11.657v-29.658h16.293c12.929 0 25.638-9.38 25.638-24.309 0-14.93-12.709-24.31-25.638-24.31Zm.302 37.722h-16.595v-26.833h16.595c8.723 0 13.669 7.231 13.669 13.412 0 6.18-4.956 13.412-13.669 13.412v.009Z"/>
            <path fill="#ffffff" d="m759.026 151.401-13.376 33.937h-.393l-13.88-33.937h-12.571l20.809 47.431-11.858 26.385h12.169L772 151.401h-12.974Z"/>
            <path fill="#ffffff" d="M482.848 155.78h-.402c-2.615-3.126-7.653-5.951-13.998-5.951-13.294 0-25.482 11.702-25.482 26.732s12.188 26.532 25.482 26.532c6.345 0 11.383-2.825 13.998-6.053h.402v3.831c0 10.194-5.44 15.633-14.199 15.633-7.15 0-11.584-5.147-13.395-9.48l-10.167 4.233c2.917 7.058 10.679 15.734 23.571 15.734 13.696 0 25.281-8.073 25.281-27.738v-47.815h-11.082v4.333l-.009.009Zm-13.395 36.817c-8.055 0-14.802-6.756-14.802-16.036 0-9.279 6.747-16.237 14.802-16.237 8.056 0 14.2 6.857 14.2 16.237 0 9.38-6.245 16.036-14.2 16.036Z"/>
            <path fill="#ffffff" d="M513.67 123.197h-11.685v78.277h11.685v-78.277Z"/>
            <path fill="#ffffff" d="M567.148 166.779c-2.213-5.952-8.961-16.95-22.767-16.95s-25.079 10.788-25.079 26.632c0 14.929 11.282 26.632 26.387 26.632 12.188 0 19.237-7.47 22.163-11.803l-9.061-6.053c-3.017 4.444-7.15 7.36-13.093 7.36s-10.167-2.724-12.892-8.073l35.549-14.728-1.207-3.026v.009Zm-36.262 8.877c-.302-10.285 7.955-15.533 13.898-15.533 4.635 0 8.567 2.322 9.865 5.65l-23.763 9.883Z"/>
            <path fill="#ffffff" d="M665.62 123.206h-11.667v78.277h11.667v-78.277Z"/>
            <path fill="#ffffff" d="M353.162 149.829c-14.711 0-26.688 11.199-26.688 26.632 0 15.432 11.986 26.632 26.688 26.632 14.703 0 26.689-11.301 26.689-26.632 0-15.332-11.986-26.632-26.689-26.632Zm0 42.768c-8.064 0-15.013-6.656-15.013-16.136 0-9.481 6.949-16.137 15.013-16.137 8.065 0 15.004 6.555 15.004 16.137 0 9.581-6.948 16.136-15.004 16.136Z"/>
            <path fill="#ffffff" d="M694.274 149.692c-8.448 0-17.189 3.73-20.81 11.985l10.35 4.334c2.213-4.334 6.337-5.742 10.661-5.742 6.035 0 12.17 3.63 12.261 10.075v.805c-2.112-1.207-6.628-3.017-12.169-3.017-11.164 0-22.529 6.144-22.529 17.627 0 10.477 9.152 17.224 19.402 17.224 7.845 0 12.169-3.52 14.885-7.652h.402v6.043h11.264v-30.015c0-13.896-10.35-21.649-23.726-21.649l.009-.018Zm-1.408 42.896c-3.822 0-9.152-1.911-9.152-6.647 0-6.043 6.638-8.356 12.361-8.356 5.13 0 7.543 1.106 10.661 2.615-.905 7.25-7.141 12.388-13.87 12.388Z"/>
            <path fill="#ffffff" d="M411.386 149.829c-14.702 0-26.689 11.199-26.689 26.632 0 15.432 11.987 26.632 26.689 26.632s26.689-11.301 26.689-26.632c0-15.332-11.987-26.632-26.689-26.632Zm0 42.768c-8.055 0-15.004-6.656-15.004-16.136 0-9.481 6.949-16.137 15.004-16.137s15.004 6.555 15.004 16.137c0 9.581-6.949 16.136-15.004 16.136Z"/>
        </g>
        <g clip-path="url(#53f8d880-8b1c-4fe5-ad75-f1dd7e166763)">
            <path fill="#00C1FF" d="M77.153 66.779C75.18 68.573 74 71.559 74 75.519v128.97c0 3.659 1.008 6.48 2.722 8.301l.44.423c1.386 1.26 3.17 1.924 5.202 1.924 1.99 0 4.23-.638 6.599-1.985l85.495-48.736 29.366-16.74c3.73-2.123 5.823-4.867 6.176-7.663-.353-2.813-2.446-5.548-6.176-7.68l-29.375-16.74-85.486-48.745c-2.37-1.347-4.617-1.985-6.607-1.985-1.99 0-3.816.664-5.203 1.916Z"/>
            <path fill="url(#809a5aef-35ff-4815-a578-b9a7368f93b3)" d="m77.161 213.213-.439-.423c-1.714-1.821-2.722-4.642-2.722-8.301V75.519c0-3.96 1.18-6.946 3.153-8.74l72.979 73.225-72.97 73.209Z"/>
            <path fill="url(#e8d793d2-e93d-4f8c-a429-e59fed592cae)" d="m174.458 164.416-24.326-24.412 24.326-24.411 29.366 16.74c3.73 2.123 5.823 4.867 6.176 7.663-.353 2.804-2.446 5.548-6.176 7.671l-29.366 16.74"/>
            <path fill="url(#d5485474-89df-49b8-8d61-335be8ee239b)" d="M82.364 215.137c-2.041 0-3.816-.664-5.203-1.924l72.97-73.217 24.327 24.411-85.495 48.745c-2.37 1.347-4.61 1.985-6.599 1.985Z"/>
            <path fill="url(#0d3d9be5-6a46-49f8-9bac-3e6017d2c595)" d="M150.131 140.004 77.152 66.779c1.387-1.252 3.162-1.916 5.203-1.916 2.042 0 4.238.638 6.607 1.985l85.496 48.745-24.327 24.411"/>
            <path fill="url(#bedb9e50-4fc2-4818-acdf-e354be044615)" d="M82.373 216c-2.042 0-3.816-.664-5.203-1.924l-.017-.018-.38-.371-.034-.034.44-.44c1.386 1.26 3.17 1.924 5.203 1.924 1.99 0 4.23-.638 6.598-1.985l85.495-48.736.552.552-.552.319-85.512 48.728c-2.154 1.226-4.204 1.864-6.056 1.968-.18.008-.362.017-.534.017Z"/>
            <path fill="url(#20641c5f-bbb5-4d7c-b5af-63d3e29dcda0)" d="M76.722 213.653C75.008 211.832 74 209.01 74 205.352v-.863c0 3.659 1.008 6.48 2.722 8.301l.44.423-.44.44Z"/>
            <path fill="url(#d49a1b73-d39f-438e-95b5-c54b20208320)" d="m175.009 164.968-.551-.552 29.366-16.74c3.73-2.123 5.823-4.867 6.176-7.663a7.242 7.242 0 0 1-.681 3.046c-.913 2.011-2.747 3.909-5.495 5.479l-28.823 16.43"/>
            <path fill="url(#1e77f4df-d61a-425b-8122-cdf5c70f936f)" d="M210 139.996c-.353-2.796-2.446-5.54-6.176-7.663l-29.366-16.74.543-.552 28.823 16.429c4.109 2.347 6.167 5.436 6.176 8.526Z"/>
            <path fill="url(#1f1223f3-15a8-4203-bef9-4a050d5d8dc0)" d="M74 75.52v-.906a17 17 0 0 1 .026-.95v-.068c.18-3.15 1.154-5.61 2.696-7.249l.43.432C75.18 68.573 74 71.559 74 75.519Z"/>
            <path fill="url(#de269327-0fcf-4515-9b8c-04e6fb92e3ac)" d="M174.458 115.593 88.962 66.848c-2.368-1.347-4.617-1.985-6.607-1.985-1.99 0-3.816.664-5.203 1.915l-.43-.43c.138-.148.275-.286.422-.415l.017-.017c1.378-1.243 3.135-1.907 5.151-1.916h.043c1.999 0 4.239.638 6.607 1.985l86.047 49.056-.551.552Z"/>
        </g>
        <path stroke-width="7" stroke="#A6A6A6" d="M830.5 40v200c0 20.158-16.342 36.5-36.5 36.5H40c-20.158 0-36.5-16.342-36.5-36.5V40C3.5 19.842 19.842 3.5 40 3.5h754c20.158 0 36.5 16.342 36.5 36.5z" fill="none"/>
        <defs fill="none">
            <linearGradient gradientUnits="userSpaceOnUse" y2="147.791" x2="69.171" y1="84.796" x1="132.163" id="809a5aef-35ff-4815-a578-b9a7368f93b3">
                <stop stop-color="#00A1FF"/>
                <stop stop-color="#00BEFF" offset=".26"/>
                <stop stop-color="#00D2FF" offset=".51"/>
                <stop stop-color="#00DFFF" offset=".76"/>
                <stop stop-color="#00E3FF" offset="1"/>
            </linearGradient>
            <linearGradient gradientUnits="userSpaceOnUse" y2="139.996" x2="72.027" y1="139.996" x1="214.548" id="e8d793d2-e93d-4f8c-a429-e59fed592cae">
                <stop stop-color="#FFE000"/>
                <stop stop-color="#FFBD00" offset=".41"/>
                <stop stop-color="#FFA500" offset=".78"/>
                <stop stop-color="#FF9C00" offset="1"/>
            </linearGradient>
            <linearGradient gradientUnits="userSpaceOnUse" y2="264.009" x2="49.672" y1="158.048" x1="156.428" id="d5485474-89df-49b8-8d61-335be8ee239b">
                <stop stop-color="#FF3A44"/>
                <stop stop-color="#C31162" offset="1"/>
            </linearGradient>
            <linearGradient gradientUnits="userSpaceOnUse" y2="87.242" x2="121.812" y1="39.942" x1="74.232" id="0d3d9be5-6a46-49f8-9bac-3e6017d2c595">
                <stop stop-color="#32A071"/>
                <stop stop-color="#2DA771" offset=".07"/>
                <stop stop-color="#15CF74" offset=".48"/>
                <stop stop-color="#06E775" offset=".8"/>
                <stop stop-color="#00F076" offset="1"/>
            </linearGradient>
            <linearGradient gradientUnits="userSpaceOnUse" y2="252.362" x2="62.732" y1="166.875" x1="148.228" id="bedb9e50-4fc2-4818-acdf-e354be044615">
                <stop stop-color="#CC2E36"/>
                <stop stop-color="#9C0E4E" offset="1"/>
            </linearGradient>
            <linearGradient gradientUnits="userSpaceOnUse" y2="192.364" x2="91.822" y1="136.872" x1="147.315" id="20641c5f-bbb5-4d7c-b5af-63d3e29dcda0">
                <stop stop-color="#008DE0"/>
                <stop stop-color="#00A7E0" offset=".26"/>
                <stop stop-color="#00B8E0" offset=".51"/>
                <stop stop-color="#00C4E0" offset=".76"/>
                <stop stop-color="#00C7E0" offset="1"/>
            </linearGradient>
            <linearGradient gradientUnits="userSpaceOnUse" y2="152.482" x2="72.027" y1="152.482" x1="214.548" id="d49a1b73-d39f-438e-95b5-c54b20208320">
                <stop stop-color="#E0C500"/>
                <stop stop-color="#E0A600" offset=".41"/>
                <stop stop-color="#E09100" offset=".78"/>
                <stop stop-color="#E08900" offset="1"/>
            </linearGradient>
            <linearGradient gradientUnits="userSpaceOnUse" y2="127.518" x2="72.027" y1="127.518" x1="214.548" id="1e77f4df-d61a-425b-8122-cdf5c70f936f">
                <stop stop-color="#FFE840"/>
                <stop stop-color="#FFCE40" offset=".41"/>
                <stop stop-color="#FFBC40" offset=".78"/>
                <stop stop-color="#FFB540" offset="1"/>
            </linearGradient>
            <linearGradient gradientUnits="userSpaceOnUse" y2="119.073" x2="25.018" y1="67.944" x1="78.471" id="1f1223f3-15a8-4203-bef9-4a050d5d8dc0">
                <stop stop-color="#40B9FF"/>
                <stop stop-color="#40CEFF" offset=".26"/>
                <stop stop-color="#40DDFF" offset=".51"/>
                <stop stop-color="#40E7FF" offset=".76"/>
                <stop stop-color="#40EAFF" offset="1"/>
            </linearGradient>
            <linearGradient gradientUnits="userSpaceOnUse" y2="85.334" x2="120.659" y1="47.165" x1="82.484" id="de269327-0fcf-4515-9b8c-04e6fb92e3ac">
                <stop stop-color="#65B895"/>
                <stop stop-color="#62BD95" offset=".07"/>
                <stop stop-color="#50DB97" offset=".48"/>
                <stop stop-color="#44ED98" offset=".8"/>
                <stop stop-color="#40F498" offset="1"/>
            </linearGradient>
            <clipPath id="e846ded9-35db-4469-9cea-5b39e4e9e719">
                <path transform="translate(242 56)" fill="#ffffff" d="M530 0v171H0V0h530z"/>
            </clipPath>
            <clipPath id="53f8d880-8b1c-4fe5-ad75-f1dd7e166763">
                <path transform="translate(74 64)" fill="#ffffff" d="M136 0v152H0V0h136z"/>
            </clipPath>
        </defs>
    </g>
</svg>
